<?xml version="1.0" standalone="no"?>
<!DOCTYPE svg PUBLIC "-//W3C//DTD SVG 20010904//EN"
 "http://www.w3.org/TR/2001/REC-SVG-20010904/DTD/svg10.dtd">
<svg version="1.0" xmlns="http://www.w3.org/2000/svg"
 width="512.000000pt" height="512.000000pt" viewBox="0 0 512.000000 512.000000"
 preserveAspectRatio="xMidYMid meet">
<metadata>
Created by potrace 1.14, written by Peter Selinger 2001-2017
</metadata>
<g transform="translate(0.000000,512.000000) scale(0.100000,-0.100000)"
fill="#000000" stroke="none">
<path d="M2368 5065 c-2 -2 -55 -6 -118 -10 -63 -4 -117 -8 -120 -10 -3 -2
-30 -6 -60 -10 -30 -3 -75 -11 -100 -17 -25 -5 -56 -12 -70 -14 -14 -3 -32 -7
-40 -10 -8 -3 -48 -15 -88 -25 -267 -71 -622 -253 -853 -439 -321 -258 -578
-599 -735 -975 -133 -320 -188 -620 -181 -988 5 -237 20 -360 72 -563 192
-750 750 -1381 1475 -1667 148 -58 387 -127 441 -127 13 0 68 -22 123 -49 56
-27 127 -57 159 -66 194 -56 422 -52 596 9 41 15 48 15 109 -4 193 -60 402
-59 598 1 48 15 69 17 83 9 11 -5 60 -20 108 -32 133 -33 332 -30 467 6 114
30 240 89 330 154 205 149 355 396 391 642 11 72 13 216 5 262 -5 24 -11 61
-14 83 -18 113 -97 286 -181 395 l-48 63 17 46 c10 25 25 67 34 93 l16 48 80
0 c119 1 186 35 232 120 18 34 19 82 22 1335 2 1167 1 1304 -13 1342 -24 61
-52 93 -109 119 l-51 24 -702 0 -702 0 -77 35 c-238 109 -539 189 -789 210
-75 7 -303 14 -307 10z"/>
</g>
</svg>
